<?xml version="1.0" encoding="utf-8"?>
<!-- Generator: Adobe Illustrator 21.0.0, SVG Export Plug-In . SVG Version: 6.00 Build 0)  -->
<svg version="1.1" id="Capa_1" xmlns="http://www.w3.org/2000/svg" xmlns:xlink="http://www.w3.org/1999/xlink" x="0px" y="0px"
	 viewBox="0 0 511 511" style="enable-background:new 0 0 511 511;" xml:space="preserve">
<style type="text/css">
	.st0{fill:#F4F1D0;}
</style>
<path class="st0" d="M503.5,180H439v-0.5c0-13-10.5-23.5-23.5-23.5S392,166.5,392,179.5v0.5h-64.5c-4.1,0-7.5,3.4-7.5,7.5
	s3.4,7.5,7.5,7.5H384v8.5c0,0.2,0,0.3,0,0.5h-48.4c0,0,0,0,0,0H175.4c0,0,0,0,0,0H127c0-0.2,0-0.3,0-0.5V195h56.5
	c4.1,0,7.5-3.4,7.5-7.5s-3.4-7.5-7.5-7.5H119v-0.5c0-13-10.5-23.5-23.5-23.5S72,166.5,72,179.5v0.5H7.5c-4.1,0-7.5,3.4-7.5,7.5
	s3.4,7.5,7.5,7.5H64v8.5c0,17.4,14.1,31.5,31.5,31.5c11.7,0,22-6.5,27.4-16h47.2l7,21c4.7,14,16.7,24.1,30.9,26.5v11.5
	c-4.8,2.6-8,7.7-8,13.6v8c0,30.6,24.9,55.5,55.5,55.5s55.5-24.9,55.5-55.5v-8c0-5.8-3.2-10.9-8-13.6v-11.5
	c14.2-2.4,26.2-12.4,30.9-26.5l7-21h47.2c5.4,9.5,15.7,16,27.4,16c17.4,0,31.5-14.1,31.5-31.5V195h56.5c4.1,0,7.5-3.4,7.5-7.5
	S507.6,180,503.5,180z M87,179.5c0-4.7,3.8-8.5,8.5-8.5s8.5,3.8,8.5,8.5v0.5H87V179.5z M95.5,220c-9.1,0-16.5-7.4-16.5-16.5V195h33
	v8.5C112,212.6,104.6,220,95.5,220z M288,267v9h-65v-9H288z M264,299.5c0,4.7-3.8,8.5-8.5,8.5s-8.5-3.8-8.5-8.5s3.8-8.5,8.5-8.5
	C260.2,291,264,294.8,264,299.5z M296,299.5c0,22.3-18.2,40.5-40.5,40.5S215,321.8,215,299.5v-8c0-0.3,0.2-0.5,0.5-0.5h18.1
	c-1,2.6-1.6,5.5-1.6,8.5c0,13,10.5,23.5,23.5,23.5s23.5-10.5,23.5-23.5c0-3-0.6-5.9-1.6-8.5h18.1c0.3,0,0.5,0.2,0.5,0.5V299.5z
	 M319.7,235.2c-3.3,10-12.7,16.8-23.2,16.8h-81.9c-10.6,0-19.9-6.7-23.2-16.8l-5.4-16.2h139.2L319.7,235.2z M407,179.5
	c0-4.7,3.8-8.5,8.5-8.5s8.5,3.8,8.5,8.5v0.5h-17V179.5z M432,203.5c0,9.1-7.4,16.5-16.5,16.5s-16.5-7.4-16.5-16.5V195h33V203.5z"/>
</svg>
