<?xml version="1.0" encoding="utf-8"?>
<!-- Generator: Adobe Illustrator 21.0.0, SVG Export Plug-In . SVG Version: 6.00 Build 0)  -->
<svg version="1.1" id="Capa_1" xmlns="http://www.w3.org/2000/svg" xmlns:xlink="http://www.w3.org/1999/xlink" x="0px" y="0px"
	 viewBox="0 0 511 511" style="enable-background:new 0 0 511 511;" xml:space="preserve">
<style type="text/css">
	.st0{fill:#F4F1D0;}
</style>
<g>
	<path class="st0" d="M87.5,416c-2,0-3.9,0.8-5.3,2.2c-1.4,1.4-2.2,3.3-2.2,5.3s0.8,3.9,2.2,5.3c1.4,1.4,3.3,2.2,5.3,2.2
		c2,0,3.9-0.8,5.3-2.2c1.4-1.4,2.2-3.3,2.2-5.3s-0.8-3.9-2.2-5.3C91.4,416.8,89.5,416,87.5,416z"/>
	<path class="st0" d="M498.2,338.2l-58.4,58.4c-4.8-2.9-10.4-4.6-16.3-4.6c-6.2,0-12,1.8-16.9,5c-0.4-1-0.9-2-1.7-2.8l-80-80
		c-0.4-0.4-0.8-0.7-1.2-1l5.3-90.4c1.4-0.3,2.8-1,3.9-2.1l104-104c0.4-0.4,0.7-0.8,1-1.3c0.7-0.4,1.4-0.7,2-1.1l58.4,58.4
		c1.5,1.5,3.4,2.2,5.3,2.2s3.8-0.7,5.3-2.2c2.9-2.9,2.9-7.7,0-10.6l-58.4-58.4c2.9-4.8,4.6-10.4,4.6-16.3
		c0-17.4-14.1-31.5-31.5-31.5c-6,0-11.6,1.7-16.3,4.6L348.8,2.2c-2.9-2.9-7.7-2.9-10.6,0c-2.9,2.9-2.9,7.7,0,10.6l58.4,58.4
		c-2.9,4.8-4.6,10.4-4.6,16.3c0,1.3,0.1,2.6,0.3,3.9L317.1,144c-2.1-2.9-4.3-5.7-6.8-8.3C296,120.4,276.5,112,255.5,112
		s-40.5,8.4-54.9,23.7c-2.5,2.6-4.7,5.4-6.8,8.3l-75.1-52.6c0.2-1.3,0.3-2.6,0.3-3.9c0-6-1.7-11.6-4.6-16.3l58.4-58.4
		c2.9-2.9,2.9-7.7,0-10.6s-7.7-2.9-10.6,0l-58.4,58.4C99.1,57.7,93.5,56,87.5,56C70.1,56,56,70.1,56,87.5c0,6,1.7,11.6,4.6,16.3
		L2.2,162.2c-2.9,2.9-2.9,7.7,0,10.6c1.5,1.5,3.4,2.2,5.3,2.2s3.8-0.7,5.3-2.2l58.4-58.4c0.7,0.4,1.3,0.8,2,1.1
		c0.3,0.4,0.6,0.9,1,1.3l104,104c1.1,1.1,2.5,1.8,3.9,2.1l5.3,90.4c-0.4,0.3-0.8,0.6-1.2,1l-80,80c-0.8,0.8-1.4,1.8-1.7,2.8
		c-4.9-3.1-10.7-5-16.9-5c-6,0-11.6,1.7-16.3,4.6l-58.4-58.4c-2.9-2.9-7.7-2.9-10.6,0c-2.9,2.9-2.9,7.7,0,10.6l58.4,58.4
		c-2.9,4.8-4.6,10.4-4.6,16.3c0,17.4,14.1,31.5,31.5,31.5c6,0,11.6-1.7,16.3-4.6l58.4,58.4c1.5,1.5,3.4,2.2,5.3,2.2
		c1.9,0,3.8-0.7,5.3-2.2c2.9-2.9,2.9-7.7,0-10.6l-56.9-56.9l91.5-49.2c6.4,4.4,14,6.9,22.3,6.9h51.7c8.2,0,15.9-2.6,22.3-6.9
		l91.5,49.2l-56.9,56.9c-2.9,2.9-2.9,7.7,0,10.6c1.5,1.5,3.4,2.2,5.3,2.2s3.8-0.7,5.3-2.2l58.4-58.4c4.8,2.9,10.4,4.6,16.3,4.6
		c17.4,0,31.5-14.1,31.5-31.5c0-6-1.7-11.6-4.6-16.3l58.4-58.4c2.9-2.9,2.9-7.7,0-10.6C505.9,335.3,501.1,335.3,498.2,338.2z
		 M394.2,404.8c0.8,0.8,1.8,1.4,2.8,1.7c-3,4.7-4.8,10.2-4.9,16.1l-77.5-41.7c3.6-5.5,5.8-12.1,6.3-19.1l1.7-28.8L394.2,404.8z
		 M423.5,71c9.1,0,16.5,7.4,16.5,16.5c0,9.1-7.4,16.5-16.5,16.5S407,96.6,407,87.5C407,78.4,414.4,71,423.5,71z M397.9,105.8
		c4.1,5.7,9.9,9.9,16.8,11.9l-84.5,84.5l0.6-10.4c0.7-12.2-1.4-24-6.2-34.7L397.9,105.8z M211.6,146c1.4-1.5,2.9-2.9,4.4-4.3v17.8
		c0,4.1,3.4,7.5,7.5,7.5s7.5-3.4,7.5-7.5v-24c0-1.1-0.2-2.1-0.7-3c7.8-3.6,16.3-5.5,25.1-5.5s17.4,1.9,25.2,5.5
		c-0.4,0.9-0.7,2-0.7,3v24c0,4.1,3.4,7.5,7.5,7.5s7.5-3.4,7.5-7.5v-17.8c1.5,1.3,3,2.8,4.4,4.3c11.5,12.2,17.3,28.2,16.3,45l-10,170
		c-0.5,7.9-4.7,14.7-10.8,18.9V191.5c0-4.1-3.4-7.5-7.5-7.5s-7.5,3.4-7.5,7.5v192c0,0.2,0,0.3,0,0.5H231c0-0.2,0-0.3,0-0.5v-192
		c0-4.1-3.4-7.5-7.5-7.5s-7.5,3.4-7.5,7.5v188.3c-6.1-4.1-10.3-11-10.8-18.9l-10-170C194.2,174.2,200,158.2,211.6,146z M87.5,71
		c9.1,0,16.5,7.4,16.5,16.5c0,9.1-7.4,16.5-16.5,16.5S71,96.6,71,87.5C71,78.4,78.4,71,87.5,71z M96.3,117.7
		c6.8-2,12.7-6.3,16.8-11.9l73.3,51.3c-4.7,10.8-6.9,22.6-6.2,34.7l0.6,10.4L96.3,117.7z M188.6,333.1l1.7,28.8
		c0.4,7,2.7,13.5,6.3,19.1L119,422.6c-0.2-5.9-2-11.4-4.9-16.1c1-0.4,2-0.9,2.8-1.7L188.6,333.1z M87.5,440
		c-9.1,0-16.5-7.4-16.5-16.5c0-9.1,7.4-16.5,16.5-16.5s16.5,7.4,16.5,16.5C104,432.6,96.6,440,87.5,440z M423.5,440
		c-9.1,0-16.5-7.4-16.5-16.5c0-9.1,7.4-16.5,16.5-16.5s16.5,7.4,16.5,16.5C440,432.6,432.6,440,423.5,440z"/>
	<path class="st0" d="M423.5,416c-2,0-3.9,0.8-5.3,2.2c-1.4,1.4-2.2,3.3-2.2,5.3s0.8,3.9,2.2,5.3c1.4,1.4,3.3,2.2,5.3,2.2
		s3.9-0.8,5.3-2.2c1.4-1.4,2.2-3.3,2.2-5.3s-0.8-3.9-2.2-5.3C427.4,416.8,425.5,416,423.5,416z"/>
	<path class="st0" d="M423.5,95c2,0,3.9-0.8,5.3-2.2c1.4-1.4,2.2-3.3,2.2-5.3s-0.8-3.9-2.2-5.3c-1.4-1.4-3.3-2.2-5.3-2.2
		s-3.9,0.8-5.3,2.2c-1.4,1.4-2.2,3.3-2.2,5.3s0.8,3.9,2.2,5.3C419.6,94.2,421.5,95,423.5,95z"/>
	<path class="st0" d="M87.5,95c2,0,3.9-0.8,5.3-2.2c1.4-1.4,2.2-3.3,2.2-5.3s-0.8-3.9-2.2-5.3c-1.4-1.4-3.3-2.2-5.3-2.2
		c-2,0-3.9,0.8-5.3,2.2c-1.4,1.4-2.2,3.3-2.2,5.3s0.8,3.9,2.2,5.3C83.6,94.2,85.5,95,87.5,95z"/>
	<path class="st0" d="M255.5,367c4.1,0,7.5-3.4,7.5-7.5v-24c0-4.1-3.4-7.5-7.5-7.5s-7.5,3.4-7.5,7.5v24
		C248,363.6,251.4,367,255.5,367z"/>
</g>
</svg>
