<?xml version="1.0" encoding="utf-8"?>
<!-- Generator: Adobe Illustrator 21.0.0, SVG Export Plug-In . SVG Version: 6.00 Build 0)  -->
<svg version="1.1" id="Capa_1" xmlns="http://www.w3.org/2000/svg" xmlns:xlink="http://www.w3.org/1999/xlink" x="0px" y="0px"
	 viewBox="0 0 511 511" style="enable-background:new 0 0 511 511;" xml:space="preserve">
<style type="text/css">
	.st0{fill:#F4F1D0;}
</style>
<g>
	<path class="st0" d="M503.5,264H439v-0.5c0-13-10.5-23.5-23.5-23.5S392,250.5,392,263.5v0.5h-64.5c-4.1,0-7.5,3.4-7.5,7.5
		s3.4,7.5,7.5,7.5H384v8.5c0,0.2,0,0.3,0,0.5h-48.4c0,0,0,0,0,0H175.4c0,0,0,0,0,0H127c0-0.2,0-0.3,0-0.5V279h56.5
		c4.1,0,7.5-3.4,7.5-7.5s-3.4-7.5-7.5-7.5H119v-0.5c0-13-10.5-23.5-23.5-23.5S72,250.5,72,263.5v0.5H7.5c-4.1,0-7.5,3.4-7.5,7.5
		s3.4,7.5,7.5,7.5H64v8.5c0,17.4,14.1,31.5,31.5,31.5c11.7,0,22-6.5,27.4-16h47.2l7,21c5.4,16.2,20.4,27,37.5,27h81.9
		c17,0,32.1-10.9,37.5-27l7-21h47.2c5.4,9.5,15.7,16,27.4,16c17.4,0,31.5-14.1,31.5-31.5V279h56.5c4.1,0,7.5-3.4,7.5-7.5
		S507.6,264,503.5,264z M87,263.5c0-4.7,3.8-8.5,8.5-8.5s8.5,3.8,8.5,8.5v0.5H87V263.5z M95.5,304c-9.1,0-16.5-7.4-16.5-16.5V279h33
		v8.5C112,296.6,104.6,304,95.5,304z M319.7,319.2c-3.3,10-12.7,16.8-23.2,16.8h-81.9c-10.6,0-19.9-6.7-23.2-16.8l-5.4-16.2h139.2
		L319.7,319.2z M407,263.5c0-4.7,3.8-8.5,8.5-8.5s8.5,3.8,8.5,8.5v0.5h-17V263.5z M432,287.5c0,9.1-7.4,16.5-16.5,16.5
		s-16.5-7.4-16.5-16.5V279h33V287.5z"/>
	<path class="st0" d="M199.5,167h25.1l7.5,97.1c0.3,4.1,3.9,7.2,8.1,6.9c4.1-0.3,7.2-3.9,6.9-8.1l-8-104c-0.3-3.9-3.6-6.9-7.5-6.9
		H216l39.5-45.1L295,152h-15.5c-3.9,0-7.2,3-7.5,6.9l-8,104c-0.3,4.1,2.8,7.7,6.9,8.1c0.2,0,0.4,0,0.6,0c3.9,0,7.2-3,7.5-6.9
		l7.5-97.1h25.1c2.9,0,5.6-1.7,6.8-4.4c1.2-2.7,0.8-5.8-1.2-8l-56-64c-1.4-1.6-3.5-2.6-5.6-2.6s-4.2,0.9-5.6,2.6l-56,64
		c-1.9,2.2-2.4,5.4-1.2,8C193.9,165.3,196.6,167,199.5,167z"/>
	<path class="st0" d="M341.1,376.4c-13.5-3.5-31.9-6.1-53.1-7.4c-4.1-0.3-7.7,2.9-8,7c-0.3,4.1,2.9,7.7,7,8
		c37.5,2.3,56.9,8,63.3,11.6c-8.8,5-41.1,12.5-94.8,12.5s-86-7.5-94.8-12.5c6.4-3.6,25.8-9.2,63.3-11.6c4.1-0.3,7.3-3.8,7-8
		c-0.3-4.1-3.8-7.3-7.9-7c-21.2,1.3-39.6,3.9-53.1,7.4c-11.1,2.9-25.9,8-25.9,19.1c0,10,11.3,16.6,36.5,21.5c20.1,3.9,46.7,6,75,6
		s54.9-2.1,75-6c25.3-4.9,36.5-11.5,36.5-21.5C367,384.4,352.2,379.3,341.1,376.4z"/>
</g>
</svg>
