<?xml version="1.0" encoding="iso-8859-1"?>
<!-- Generator: Adobe Illustrator 17.1.0, SVG Export Plug-In . SVG Version: 6.00 Build 0)  -->
<!DOCTYPE svg PUBLIC "-//W3C//DTD SVG 1.1//EN" "http://www.w3.org/Graphics/SVG/1.1/DTD/svg11.dtd">
<svg version="1.1" id="Capa_1" xmlns="http://www.w3.org/2000/svg" xmlns:xlink="http://www.w3.org/1999/xlink" x="0px" y="0px"
	 viewBox="0 0 511 511" style="enable-background:new 0 0 511 511;" xml:space="preserve">
<g>
	<path d="M468.804,152.086l-8.32-87.365c-1.69-17.748-9.886-34.128-23.077-46.122C424.217,6.605,407.134,0,389.306,0H121.694
		c-17.828,0-34.911,6.605-48.102,18.599C60.402,30.593,52.207,46.973,50.516,64.721l-8.32,87.365
		C40.739,167.388,40,182.938,40,198.306V439.5c0,39.425,32.075,71.5,71.5,71.5h288c39.425,0,71.5-32.075,71.5-71.5V198.306
		C471,182.938,470.261,167.388,468.804,152.086z M55,407h8.5c4.142,0,7.5-3.358,7.5-7.5s-3.358-7.5-7.5-7.5H55v-17h8.5
		c4.142,0,7.5-3.358,7.5-7.5s-3.358-7.5-7.5-7.5H55v-17h8.5c4.142,0,7.5-3.358,7.5-7.5s-3.358-7.5-7.5-7.5H55v-17h8.5
		c4.142,0,7.5-3.358,7.5-7.5s-3.358-7.5-7.5-7.5H55v-17h8.5c13.509,0,24.5,10.991,24.5,24.5v8v88c0,13.509-10.991,24.5-24.5,24.5H55
		V407z M103,303.5v-24c0-13.509,10.991-24.5,24.5-24.5h32c13.509,0,24.5,10.991,24.5,24.5v32c0,13.509-10.991,24.5-24.5,24.5h-7.477
		c-0.027-0.001-0.053,0-0.08,0H127.5c-13.509,0-24.5-10.991-24.5-24.5V303.5z M127,214.975c0.167,0.005,0.331,0.025,0.5,0.025h256
		c0.169,0,0.333-0.02,0.5-0.025v25.038c-0.167-0.002-0.332-0.013-0.5-0.013h-32c-21.78,0-39.5,17.72-39.5,39.5v32
		c0,21.528,17.315,39.077,38.748,39.481c-3.398,21.081-13.69,40.438-29.512,55.167C303.328,422.819,279.982,432,255.5,432
		c-24.483,0-47.829-9.182-65.737-25.853c-15.821-14.729-26.112-34.085-29.511-55.166C181.685,350.577,199,333.028,199,311.5v-32
		c0-21.78-17.72-39.5-39.5-39.5h-32c-0.168,0-0.333,0.011-0.5,0.013V214.975z M306.197,76.803C307.661,78.268,309.581,79,311.5,79
		s3.839-0.732,5.303-2.197L338.606,55H383.5c0.257,0,0.5,0.243,0.5,0.5v144c0,0.257-0.243,0.5-0.5,0.5H193.606l99.197-99.197
		c2.929-2.929,2.929-7.678,0-10.606c-2.929-2.929-7.678-2.929-10.606,0L172.394,200H127.5c-0.257,0-0.5-0.243-0.5-0.5v-144
		c0-0.257,0.243-0.5,0.5-0.5h189.894l-11.197,11.197C303.268,69.125,303.268,73.875,306.197,76.803z M145.076,351
		c3.519,25.287,15.594,48.557,34.466,66.125C200.236,436.391,227.211,447,255.5,447c28.288,0,55.263-10.609,75.957-29.874
		c18.872-17.568,30.948-40.839,34.466-66.126h17.143c-7.682,63.976-62.244,113-127.566,113s-119.884-49.024-127.566-113H145.076z
		 M383.5,336h-32c-13.509,0-24.5-10.991-24.5-24.5v-32c0-13.509,10.991-24.5,24.5-24.5h32c13.509,0,24.5,10.991,24.5,24.5v24v8
		C408,325.009,397.009,336,383.5,336z M423,311.5v-8c0-13.509,10.991-24.5,24.5-24.5h8.5v17h-8.5c-4.142,0-7.5,3.358-7.5,7.5
		s3.358,7.5,7.5,7.5h8.5v17h-8.5c-4.142,0-7.5,3.358-7.5,7.5s3.358,7.5,7.5,7.5h8.5v17h-8.5c-4.142,0-7.5,3.358-7.5,7.5
		s3.358,7.5,7.5,7.5h8.5v17h-8.5c-4.142,0-7.5,3.358-7.5,7.5s3.358,7.5,7.5,7.5h8.5v17h-8.5c-13.509,0-24.5-10.991-24.5-24.5V311.5z
		 M57.128,153.508l8.32-87.365C68.226,36.987,92.406,15,121.694,15h267.611c29.289,0,53.469,21.987,56.246,51.143l8.32,87.365
		c1.412,14.831,2.128,29.903,2.128,44.797V264h-8.5c-9.5,0-18.226,3.373-25.048,8.981c-2.241-13.434-11.278-24.595-23.452-29.809
		V207.5c0-1.167-0.274-2.268-0.75-3.253c0.483-1.497,0.75-3.091,0.75-4.747v-144c0-8.547-6.953-15.5-15.5-15.5h-256
		c-8.547,0-15.5,6.953-15.5,15.5v144c0,1.656,0.267,3.249,0.75,4.747c-0.476,0.985-0.75,2.086-0.75,3.253v35.672
		c-12.174,5.214-21.211,16.375-23.452,29.809C81.726,267.373,73,264,63.5,264H55v-65.694C55,183.411,55.716,168.339,57.128,153.508z
		 M399.5,496h-288C80.346,496,55,470.654,55,439.5V439h8.5c21.78,0,39.5-17.72,39.5-39.5v-57.051
		c2.885,2.289,6.093,4.184,9.548,5.603C118.938,421.81,180.946,479,255.5,479s136.562-57.19,142.952-130.948
		c3.455-1.419,6.663-3.314,9.548-5.603V399.5c0,21.78,17.72,39.5,39.5,39.5h8.5v0.5C456,470.654,430.654,496,399.5,496z"/>
	<path d="M143.5,327c17.369,0,31.5-14.131,31.5-31.5c0-4.142-3.358-7.5-7.5-7.5s-7.5,3.358-7.5,7.5c0,9.098-7.402,16.5-16.5,16.5
		s-16.5-7.402-16.5-16.5s7.402-16.5,16.5-16.5c4.142,0,7.5-3.358,7.5-7.5s-3.358-7.5-7.5-7.5c-17.369,0-31.5,14.131-31.5,31.5
		S126.131,327,143.5,327z"/>
	<path d="M391.5,288c-4.142,0-7.5,3.358-7.5,7.5c0,9.098-7.402,16.5-16.5,16.5s-16.5-7.402-16.5-16.5s7.402-16.5,16.5-16.5
		c4.142,0,7.5-3.358,7.5-7.5s-3.358-7.5-7.5-7.5c-17.369,0-31.5,14.131-31.5,31.5s14.131,31.5,31.5,31.5s31.5-14.131,31.5-31.5
		C399,291.358,395.642,288,391.5,288z"/>
	<path d="M255.5,343c17.369,0,31.5-14.131,31.5-31.5v-32c0-17.369-14.131-31.5-31.5-31.5S224,262.131,224,279.5v32
		C224,328.869,238.131,343,255.5,343z M255.5,328c-9.098,0-16.5-7.402-16.5-16.5V303h33v8.5C272,320.598,264.598,328,255.5,328z
		 M255.5,263c9.098,0,16.5,7.402,16.5,16.5v8.5h-33v-8.5C239,270.402,246.402,263,255.5,263z"/>
</g>
<g>
</g>
<g>
</g>
<g>
</g>
<g>
</g>
<g>
</g>
<g>
</g>
<g>
</g>
<g>
</g>
<g>
</g>
<g>
</g>
<g>
</g>
<g>
</g>
<g>
</g>
<g>
</g>
<g>
</g>
</svg>
