<?xml version="1.0" encoding="iso-8859-1"?>
<!-- Generator: Adobe Illustrator 17.1.0, SVG Export Plug-In . SVG Version: 6.00 Build 0)  -->
<!DOCTYPE svg PUBLIC "-//W3C//DTD SVG 1.1//EN" "http://www.w3.org/Graphics/SVG/1.1/DTD/svg11.dtd">
<svg version="1.1" id="Capa_1" xmlns="http://www.w3.org/2000/svg" xmlns:xlink="http://www.w3.org/1999/xlink" x="0px" y="0px"
	 viewBox="0 0 511 511" style="enable-background:new 0 0 511 511;" xml:space="preserve">
<g>
	<path d="M371.5,144h-32.513c0.003-0.167,0.013-0.332,0.013-0.5v-104C339,22.131,324.869,8,307.5,8H235V7.5
		c0-4.142-3.358-7.5-7.5-7.5h-80c-4.142,0-7.5,3.358-7.5,7.5V8H67.5C50.131,8,36,22.131,36,39.5v104c0,17.369,14.131,31.5,31.5,31.5
		h54.324C102.919,194.247,92,220.303,92,247.5v160C92,464.57,138.43,511,195.5,511h176c57.07,0,103.5-46.43,103.5-103.5v-160
		C475,190.43,428.57,144,371.5,144z M324,39.5v104c0,9.098-7.402,16.5-16.5,16.5H291V23h16.5C316.598,23,324,30.402,324,39.5z
		 M155,15h65v9h-65V15z M148.5,39h78c4.687,0,8.5-3.813,8.5-8.5V23h14.394l-11.197,11.197c-2.929,2.929-2.929,7.678,0,10.606
		C239.661,46.268,241.581,47,243.5,47s3.839-0.732,5.303-2.197L270.606,23H276v137h-41v-0.5c0-4.142-3.358-7.5-7.5-7.5h-80
		c-4.142,0-7.5,3.358-7.5,7.5v0.5h-6.394l91.197-91.197c2.929-2.929,2.929-7.678,0-10.606c-2.929-2.929-7.678-2.929-10.606,0
		L112.394,160H99V23h41v7.5C140,35.187,143.813,39,148.5,39z M155,167h65v17h-65V167z M51,143.5v-104C51,30.402,58.402,23,67.5,23
		H84v137H67.5C58.402,160,51,152.598,51,143.5z M460,407.5c0,48.799-39.701,88.5-88.5,88.5h-176c-48.799,0-88.5-39.701-88.5-88.5
		v-160c0-26.624,12.253-51.984,33-68.788v8.788c0,6.341,5.159,11.5,11.5,11.5h72c6.341,0,11.5-5.159,11.5-11.5V175h72.5
		c11.737,0,21.987-6.457,27.406-16H371.5c48.799,0,88.5,39.701,88.5,88.5V407.5z"/>
	<path d="M195.5,224c-30.603,0-55.5,24.897-55.5,55.5s24.897,55.5,55.5,55.5s55.5-24.897,55.5-55.5S226.103,224,195.5,224z
		 M195.5,320c-22.332,0-40.5-18.168-40.5-40.5s18.168-40.5,40.5-40.5s40.5,18.168,40.5,40.5S217.832,320,195.5,320z"/>
	<path d="M371.5,224c-30.603,0-55.5,24.897-55.5,55.5s24.897,55.5,55.5,55.5s55.5-24.897,55.5-55.5S402.103,224,371.5,224z
		 M371.5,320c-22.332,0-40.5-18.168-40.5-40.5s18.168-40.5,40.5-40.5s40.5,18.168,40.5,40.5S393.832,320,371.5,320z"/>
	<path d="M211.5,272c-4.142,0-7.5,3.358-7.5,7.5c0,4.687-3.813,8.5-8.5,8.5s-8.5-3.813-8.5-8.5s3.813-8.5,8.5-8.5
		c4.142,0,7.5-3.358,7.5-7.5s-3.358-7.5-7.5-7.5c-12.958,0-23.5,10.542-23.5,23.5s10.542,23.5,23.5,23.5s23.5-10.542,23.5-23.5
		C219,275.358,215.642,272,211.5,272z"/>
	<path d="M387.5,272c-4.142,0-7.5,3.358-7.5,7.5c0,4.687-3.813,8.5-8.5,8.5s-8.5-3.813-8.5-8.5s3.813-8.5,8.5-8.5
		c4.142,0,7.5-3.358,7.5-7.5s-3.358-7.5-7.5-7.5c-12.958,0-23.5,10.542-23.5,23.5s10.542,23.5,23.5,23.5s23.5-10.542,23.5-23.5
		C395,275.358,391.642,272,387.5,272z"/>
	<path d="M283.5,296c-4.142,0-7.5,3.358-7.5,7.5v8c0,4.142,3.358,7.5,7.5,7.5s7.5-3.358,7.5-7.5v-8
		C291,299.358,287.642,296,283.5,296z"/>
	<path d="M283.5,328c-4.142,0-7.5,3.358-7.5,7.5v8c0,4.142,3.358,7.5,7.5,7.5s7.5-3.358,7.5-7.5v-8
		C291,331.358,287.642,328,283.5,328z"/>
	<path d="M155.5,215c1.97,0,3.91-0.8,5.3-2.2c1.4-1.39,2.2-3.33,2.2-5.3c0-1.97-0.8-3.91-2.2-5.3c-1.39-1.4-3.33-2.2-5.3-2.2
		c-1.97,0-3.91,0.8-5.3,2.2c-1.4,1.39-2.2,3.33-2.2,5.3c0,1.97,0.8,3.91,2.2,5.3C151.59,214.2,153.53,215,155.5,215z"/>
	<path d="M411.5,215c1.97,0,3.91-0.8,5.3-2.2c1.4-1.39,2.2-3.33,2.2-5.3c0-1.97-0.8-3.91-2.2-5.3c-1.39-1.4-3.33-2.2-5.3-2.2
		c-1.97,0-3.91,0.8-5.3,2.2c-1.4,1.39-2.2,3.33-2.2,5.3c0,1.97,0.8,3.91,2.2,5.3C407.59,214.2,409.53,215,411.5,215z"/>
	<path d="M211.5,376h-32c-12.958,0-23.5,10.542-23.5,23.5s10.542,23.5,23.5,23.5h32c12.958,0,23.5-10.542,23.5-23.5
		S224.458,376,211.5,376z M171,399.5c0-4.687,3.813-8.5,8.5-8.5h8.5v17h-8.5C174.813,408,171,404.187,171,399.5z M211.5,408H203v-17
		h8.5c4.687,0,8.5,3.813,8.5,8.5S216.187,408,211.5,408z"/>
	<path d="M307.5,103c4.142,0,7.5-3.358,7.5-7.5v-8c0-4.142-3.358-7.5-7.5-7.5s-7.5,3.358-7.5,7.5v8
		C300,99.642,303.358,103,307.5,103z"/>
	<path d="M67.5,72c-4.142,0-7.5,3.358-7.5,7.5v24c0,4.142,3.358,7.5,7.5,7.5s7.5-3.358,7.5-7.5v-24C75,75.358,71.642,72,67.5,72z"/>
	<path d="M67.5,120c-1.97,0-3.91,0.8-5.3,2.2c-1.4,1.39-2.2,3.33-2.2,5.3c0,1.97,0.8,3.91,2.2,5.3c1.39,1.4,3.33,2.2,5.3,2.2
		c1.97,0,3.91-0.8,5.3-2.2c1.4-1.39,2.2-3.33,2.2-5.3c0-1.97-0.8-3.91-2.2-5.3C71.41,120.8,69.47,120,67.5,120z"/>
</g>
<g>
</g>
<g>
</g>
<g>
</g>
<g>
</g>
<g>
</g>
<g>
</g>
<g>
</g>
<g>
</g>
<g>
</g>
<g>
</g>
<g>
</g>
<g>
</g>
<g>
</g>
<g>
</g>
<g>
</g>
</svg>
