<?xml version="1.0" encoding="iso-8859-1"?>
<!-- Generator: Adobe Illustrator 17.1.0, SVG Export Plug-In . SVG Version: 6.00 Build 0)  -->
<!DOCTYPE svg PUBLIC "-//W3C//DTD SVG 1.1//EN" "http://www.w3.org/Graphics/SVG/1.1/DTD/svg11.dtd">
<svg version="1.1" id="Capa_1" xmlns="http://www.w3.org/2000/svg" xmlns:xlink="http://www.w3.org/1999/xlink" x="0px" y="0px"
	 viewBox="0 0 511 511" style="enable-background:new 0 0 511 511;" xml:space="preserve">
<path d="M487.5,224H415v-8.5c0-4.142-3.358-7.5-7.5-7.5s-7.5,3.358-7.5,7.5v8.5h-72.5c-10.336,0-19.128,6.71-22.266,16H295v-8.5
	c0-4.142-3.358-7.5-7.5-7.5H263v-8.5c0-4.142-3.358-7.5-7.5-7.5s-7.5,3.358-7.5,7.5v8.5h-24.5c-4.142,0-7.5,3.358-7.5,7.5v8.5
	h-10.234c-3.138-9.29-11.93-16-22.266-16H111v-8.5c0-4.142-3.358-7.5-7.5-7.5s-7.5,3.358-7.5,7.5v8.5H23.5
	C10.542,224,0,234.542,0,247.5S10.542,271,23.5,271H80v8.5c0,12.958,10.542,23.5,23.5,23.5s23.5-10.542,23.5-23.5V271h56.5
	c10.336,0,19.128-6.71,22.266-16h10.958c3.515,18.205,19.561,32,38.777,32s35.262-13.795,38.777-32h10.958
	c3.138,9.29,11.93,16,22.266,16H384v8.5c0,12.958,10.542,23.5,23.5,23.5s23.5-10.542,23.5-23.5V271h56.5
	c12.958,0,23.5-10.542,23.5-23.5S500.458,224,487.5,224z M112,279.5c0,4.687-3.813,8.5-8.5,8.5s-8.5-3.813-8.5-8.5V271h17V279.5z
	 M183.5,256h-160c-4.687,0-8.5-3.813-8.5-8.5s3.813-8.5,8.5-8.5h160c4.687,0,8.5,3.813,8.5,8.5S188.187,256,183.5,256z M255.5,272
	c-13.509,0-24.5-10.991-24.5-24.5V239h49v8.5C280,261.009,269.009,272,255.5,272z M416,279.5c0,4.687-3.813,8.5-8.5,8.5
	s-8.5-3.813-8.5-8.5V271h17V279.5z M487.5,256h-160c-4.687,0-8.5-3.813-8.5-8.5s3.813-8.5,8.5-8.5h160c4.687,0,8.5,3.813,8.5,8.5
	S492.187,256,487.5,256z"/>
<g>
</g>
<g>
</g>
<g>
</g>
<g>
</g>
<g>
</g>
<g>
</g>
<g>
</g>
<g>
</g>
<g>
</g>
<g>
</g>
<g>
</g>
<g>
</g>
<g>
</g>
<g>
</g>
<g>
</g>
</svg>
