<?xml version="1.0" encoding="iso-8859-1"?>
<!-- Generator: Adobe Illustrator 17.1.0, SVG Export Plug-In . SVG Version: 6.00 Build 0)  -->
<!DOCTYPE svg PUBLIC "-//W3C//DTD SVG 1.1//EN" "http://www.w3.org/Graphics/SVG/1.1/DTD/svg11.dtd">
<svg version="1.1" id="Capa_1" xmlns="http://www.w3.org/2000/svg" xmlns:xlink="http://www.w3.org/1999/xlink" x="0px" y="0px"
	 viewBox="0 0 511 511" style="enable-background:new 0 0 511 511;" xml:space="preserve">
<g>
	<path d="M471.5,208H391v-8.5c0-21.78-17.72-39.5-39.5-39.5H263V62.091c13.759-3.374,24-15.806,24-30.591
		C287,14.131,272.869,0,255.5,0S224,14.131,224,31.5c0,14.785,10.241,27.216,24,30.591V160h-88.5c-21.78,0-39.5,17.72-39.5,39.5v8.5
		H39.5C17.72,208,0,225.72,0,247.5v208C0,477.28,17.72,495,39.5,495H184v7.5c0,4.687,3.813,8.5,8.5,8.5h126
		c4.687,0,8.5-3.813,8.5-8.5V495h144.5c21.78,0,39.5-17.72,39.5-39.5v-208C511,225.72,493.28,208,471.5,208z M239,31.5
		c0-9.098,7.402-16.5,16.5-16.5S272,22.402,272,31.5S264.598,48,255.5,48S239,40.598,239,31.5z M135,199.5
		c0-13.509,10.991-24.5,24.5-24.5h192c13.509,0,24.5,10.991,24.5,24.5v8.5h-49v-7.5c0-4.687-3.813-8.5-8.5-8.5h-126
		c-4.687,0-8.5,3.813-8.5,8.5v7.5h-49V199.5z M199,215.539c0-0.013,0.002-0.026,0.002-0.039S199,215.474,199,215.461V207h113v25H199
		V215.539z M15,455.5v-208c0-13.509,10.991-24.5,24.5-24.5H64v257H39.5C25.991,480,15,469.009,15,455.5z M199,496v-25h113v16.461
		c0,0.013-0.002,0.026-0.002,0.039s0.002,0.026,0.002,0.039V496H199z M317.5,456h-124c-5.238,0-9.5,4.262-9.5,9.5V480h-46.394
		l171.197-171.197c2.929-2.929,2.929-7.678,0-10.606c-2.929-2.929-7.678-2.929-10.606,0L116.394,480H79V223h105v14.5
		c0,5.238,4.262,9.5,9.5,9.5h124c5.238,0,9.5-4.262,9.5-9.5V223h46.394l-19.197,19.197c-2.929,2.929-2.929,7.678,0,10.606
		c1.464,1.464,3.384,2.197,5.303,2.197s3.839-0.732,5.303-2.197L394.606,223H432v257H327v-14.5C327,460.262,322.738,456,317.5,456z
		 M496,455.5c0,13.509-10.991,24.5-24.5,24.5H447V223h24.5c13.509,0,24.5,10.991,24.5,24.5V455.5z"/>
	<path d="M39.5,328c-4.142,0-7.5,3.358-7.5,7.5v32c0,4.142,3.358,7.5,7.5,7.5s7.5-3.358,7.5-7.5v-32C47,331.358,43.642,328,39.5,328
		z"/>
	<path d="M39.5,384c-1.97,0-3.91,0.8-5.3,2.2c-1.4,1.39-2.2,3.33-2.2,5.3c0,1.97,0.8,3.91,2.2,5.3c1.39,1.4,3.33,2.2,5.3,2.2
		c1.97,0,3.91-0.8,5.3-2.2c1.4-1.39,2.2-3.33,2.2-5.3c0-1.97-0.8-3.91-2.2-5.3C43.41,384.8,41.47,384,39.5,384z"/>
	<path d="M471.5,328c-12.958,0-23.5,10.542-23.5,23.5s10.542,23.5,23.5,23.5s23.5-10.542,23.5-23.5S484.458,328,471.5,328z
		 M471.5,360c-4.687,0-8.5-3.813-8.5-8.5s3.813-8.5,8.5-8.5s8.5,3.813,8.5,8.5S476.187,360,471.5,360z"/>
	<path d="M332.804,284.803l8-8c2.929-2.929,2.929-7.678,0-10.606c-2.929-2.929-7.678-2.929-10.606,0l-8,8
		c-2.929,2.929-2.929,7.678,0,10.606c1.464,1.464,3.384,2.197,5.303,2.197S331.339,286.267,332.804,284.803z"/>
</g>
<g>
</g>
<g>
</g>
<g>
</g>
<g>
</g>
<g>
</g>
<g>
</g>
<g>
</g>
<g>
</g>
<g>
</g>
<g>
</g>
<g>
</g>
<g>
</g>
<g>
</g>
<g>
</g>
<g>
</g>
</svg>
